<?xml version="1.0" encoding="UTF-8"?>
<svg version="1.1" xmlns="http://www.w3.org/2000/svg" width="639" height="980">
<path d="M0 0 C45.59006383 -1.10521367 91.47763126 7.34388874 132.72167969 27.06640625 C133.74769287 27.55560547 133.74769287 27.55560547 134.79443359 28.0546875 C164.52786467 42.34153354 190.31586111 60.9715836 214.59667969 83.19140625 C215.51731201 84.0265979 215.51731201 84.0265979 216.45654297 84.87866211 C217.91797376 86.23293816 219.32559493 87.64486098 220.72167969 89.06640625 C220.72167969 89.72640625 220.72167969 90.38640625 220.72167969 91.06640625 C221.38167969 91.06640625 222.04167969 91.06640625 222.72167969 91.06640625 C224.06152344 92.359375 224.06152344 92.359375 225.65917969 94.25390625 C226.284375 94.99253906 226.90957031 95.73117187 227.55371094 96.4921875 C228.26914062 97.34167969 228.98457031 98.19117188 229.72167969 99.06640625 C230.52992188 99.98808594 231.33816406 100.90976562 232.17089844 101.859375 C248.7797594 120.88463211 263.08656533 142.30033135 273.81542969 165.17431641 C274.70397612 167.02944434 275.64169593 168.85020403 276.59667969 170.671875 C287.40087585 191.74033159 294.37254496 215.86626788 298.72167969 239.06640625 C298.87040527 239.82840332 299.01913086 240.59040039 299.17236328 241.37548828 C313.45168433 315.29855796 297.06413181 394.792703 255.24414062 457.27392578 C244.55745866 472.97673437 232.93572724 487.42495015 219.72167969 501.06640625 C218.82497559 501.99598145 218.82497559 501.99598145 217.91015625 502.94433594 C210.56089251 510.53208309 203.04122488 517.53685792 194.72167969 524.06640625 C193.58019313 525.00649356 192.44099827 525.94936818 191.30371094 526.89453125 C176.90592101 538.78551154 161.24854566 548.42207443 144.72167969 557.06640625 C143.83077637 557.53691406 142.93987305 558.00742187 142.02197266 558.4921875 C73.23455938 594.40805405 -7.64429552 598.48922373 -81.31787109 576.14453125 C-113.57301992 566.00673851 -144.72381497 550.05748625 -171.27832031 529.06640625 C-172.13554687 528.40125 -172.99277344 527.73609375 -173.87597656 527.05078125 C-179.07385413 522.96960381 -184.02649761 518.67308141 -188.90722656 514.21875 C-191.02335142 512.29785248 -193.171413 510.42651193 -195.34082031 508.56640625 C-202.55074177 502.2722611 -209.12925825 495.3911972 -215.27832031 488.06640625 C-215.92679932 487.31254639 -215.92679932 487.31254639 -216.58837891 486.54345703 C-232.37552507 468.14370545 -245.37730974 447.69207546 -256.27832031 426.06640625 C-256.67567383 425.28507324 -257.07302734 424.50374023 -257.48242188 423.69873047 C-268.73760883 401.21230377 -276.87469548 375.79511114 -281.27832031 351.06640625 C-281.47006836 350.06996094 -281.66181641 349.07351563 -281.859375 348.046875 C-285.15242892 330.44810722 -285.67210122 313.04878655 -285.71582031 295.19140625 C-285.72199371 294.12524078 -285.72816711 293.05907532 -285.73452759 291.96060181 C-285.81041626 271.57674638 -283.82588859 251.57877478 -279.59082031 231.62890625 C-279.3373584 230.42500244 -279.08389648 229.22109863 -278.82275391 227.98071289 C-270.12153943 188.224984 -252.71172714 150.57190073 -228.27832031 118.06640625 C-227.85615234 117.50002441 -227.43398437 116.93364258 -226.99902344 116.35009766 C-219.72574004 106.64600639 -211.71097657 97.77181688 -203.27832031 89.06640625 C-202.68051758 88.44668945 -202.08271484 87.82697266 -201.46679688 87.18847656 C-194.12140366 79.60472553 -186.61889683 72.56376144 -178.27832031 66.06640625 C-177.18845972 65.18783152 -176.09998339 64.30753763 -175.01269531 63.42578125 C-162.53677132 53.36757601 -149.38722168 44.80096171 -135.30224609 37.17089844 C-133.31268377 36.085159 -131.34009357 34.97284616 -129.36816406 33.85546875 C-90.3074849 12.04702872 -44.51822859 1.29757374 0 0 Z M-188.82275391 123.75146484 C-191.46163221 126.7447442 -193.89021002 129.87150194 -196.27832031 133.06640625 C-197.14022448 134.18755766 -198.00220899 135.30864731 -198.86425781 136.4296875 C-239.97832968 190.56042946 -258.88521699 260.80994194 -249.68066406 328.33154297 C-242.0634887 380.10799829 -221.99387629 429.4825667 -185.99316406 468.140625 C-184.27832031 470.06640625 -184.27832031 470.06640625 -183.27832031 472.06640625 C-182.61832031 472.06640625 -181.95832031 472.06640625 -181.27832031 472.06640625 C-181.04113281 472.6284375 -180.80394531 473.19046875 -180.55957031 473.76953125 C-178.98884335 476.58534667 -177.06360567 478.54596041 -174.77832031 480.81640625 C-173.98425781 481.615625 -173.19019531 482.41484375 -172.37207031 483.23828125 C-170.49048569 485.28564234 -170.49048569 485.28564234 -168.27832031 485.06640625 C-168.27832031 485.72640625 -168.27832031 486.38640625 -168.27832031 487.06640625 C-165.38456146 489.79766461 -162.20899749 492.19692094 -159.07958984 494.65234375 C-157.84790437 495.61926192 -156.61987024 496.59084457 -155.39501953 497.56640625 C-108.73821498 534.67845561 -51.50260317 555.66389187 8.28417969 555.37890625 C9.10761871 555.3767511 9.93105774 555.37459595 10.77944946 555.37237549 C69.16819677 555.12881627 125.0134058 535.38714793 170.72167969 499.06640625 C171.62015625 498.36515625 172.51863281 497.66390625 173.44433594 496.94140625 C179.17086008 492.35253882 184.60349202 487.50471535 189.97167969 482.50390625 C190.63304932 481.89095703 191.29441895 481.27800781 191.97583008 480.64648438 C196.53129079 476.35979756 200.66613536 471.82455854 204.72167969 467.06640625 C205.60970438 466.05614904 206.49892091 465.04693748 207.38964844 464.0390625 C237.45929699 429.30745293 258.32950416 385.46570649 265.72167969 340.06640625 C265.84482544 339.31865936 265.96797119 338.57091248 266.09484863 337.80050659 C268.36827988 323.68699772 269.21694736 309.91255924 269.09667969 295.62890625 C269.09235931 294.64782898 269.08803894 293.66675171 269.08358765 292.65594482 C269.00940501 278.26217285 268.49306966 264.22604297 265.72167969 250.06640625 C265.56602539 249.18678223 265.41037109 248.3071582 265.25 247.40087891 C254.47119644 186.76204089 220.40775616 129.04558624 171.72167969 91.06640625 C170.738125 90.2775 169.75457031 89.48859375 168.74121094 88.67578125 C90.69959224 26.58185114 -17.67289659 18.29598438 -188.82275391 123.75146484 Z " fill="#C1C1BF" transform="translate(321.2783203125,194.93359375)"/>
<path d="M0 0 C7.80452911 6.85275727 12.71709901 16.12013596 13.50704956 26.53439331 C13.58035648 28.22788096 13.63652639 29.9221629 13.67919922 31.61669922 C13.7288297 33.07604039 13.7288297 33.07604039 13.77946281 34.5648632 C14.23780338 50.15990436 14.14558709 65.77220724 14.1343255 81.37230158 C14.13175318 86.06557424 14.13415268 90.75884516 14.13571167 95.45211792 C14.13751902 103.32403928 14.13516467 111.19595118 14.13037109 119.06787109 C14.12492747 128.11052556 14.12669771 137.15315747 14.1321975 146.19581139 C14.13676529 154.02583987 14.1373615 161.85586165 14.13475883 169.68589103 C14.13321656 174.33358814 14.13294502 178.98127471 14.13629532 183.6289711 C14.15667568 216.73764109 14.15667568 216.73764109 13.60498047 229.52685547 C13.57306673 230.32630648 13.54115299 231.12575748 13.50827217 231.94943428 C12.9401269 242.58895565 9.09243391 251.27949062 1.375 258.625 C-6.70165209 265.29637379 -14.86558101 266.83778807 -25.15625 266.37890625 C-34.25105914 265.4823651 -40.85800435 261.70409793 -47 255 C-56.1543624 243.53320751 -55.43835334 230.32464485 -55.40405273 216.41064453 C-55.40976101 214.32028845 -55.41672704 212.22993549 -55.42485046 210.1395874 C-55.44274687 204.48248427 -55.44162001 198.82553655 -55.43590808 193.16841364 C-55.43281097 188.4369667 -55.43891453 183.70554939 -55.44494683 178.97410667 C-55.45897906 167.80741959 -55.45744173 156.64080904 -55.44604492 145.47412109 C-55.43456639 133.97358141 -55.44863803 122.47327499 -55.4754414 110.97276604 C-55.49762947 101.08029771 -55.50422872 91.18790243 -55.49836498 81.29541099 C-55.4950015 75.395229 -55.49737008 69.4951965 -55.51461601 63.59503555 C-55.53013241 58.04466021 -55.5260774 52.49462924 -55.50731087 46.94426727 C-55.50363792 44.91425261 -55.50669544 42.88421217 -55.51719666 40.85422134 C-55.59041837 25.52214123 -54.60617515 12.71684537 -43.3046875 1.28515625 C-31.29680258 -9.72655885 -12.77473884 -10.10095629 0 0 Z " fill="#C1C1BF" transform="translate(287,360)"/>
<path d="M0 0 C7.410414 6.02855401 11.93155958 15.8567439 13.02149582 25.25494957 C13.20720682 28.5799339 13.30429447 31.89573863 13.36669922 35.2253418 C13.4163297 37.11580876 13.4163297 37.11580876 13.46696281 39.04446697 C13.84161285 54.14556515 13.83435098 69.25397382 13.8218255 84.35869431 C13.81922842 88.49691717 13.82165939 92.63513823 13.82321167 96.77336121 C13.82501315 103.71585496 13.82268161 110.65833797 13.81787109 117.60083008 C13.81243894 125.53003899 13.81419184 133.45922213 13.8196975 141.38843042 C13.82429494 148.29646672 13.82484718 155.20449545 13.82225883 162.11253279 C13.82073104 166.19431235 13.82040209 170.27607996 13.82379532 174.35785866 C13.83468297 189.87270456 13.7907264 205.38890078 13.4150846 220.89992845 C13.36840589 222.91344211 13.33404021 224.92722966 13.30014229 226.94099903 C13.02966463 236.45904866 11.71294871 244.80202637 6.625 253 C6.11839844 253.83789062 5.61179687 254.67578125 5.08984375 255.5390625 C4.62707031 256.14492188 4.16429687 256.75078125 3.6875 257.375 C3.0275 257.375 2.3675 257.375 1.6875 257.375 C1.6875 258.035 1.6875 258.695 1.6875 259.375 C0.18359375 260.59375 0.18359375 260.59375 -1.875 261.875 C-2.53628906 262.2978125 -3.19757813 262.720625 -3.87890625 263.15625 C-12.61224032 267.52992613 -23.82437702 267.98296817 -33.1875 265.3125 C-42.33676791 261.5907639 -48.19495916 255.20012618 -52.3125 246.375 C-56.19553039 235.8778259 -55.74449674 225.0444603 -55.71655273 214.03344727 C-55.72226376 211.99367908 -55.72923084 209.95391408 -55.73735046 207.91415405 C-55.75521526 202.40379043 -55.75412617 196.89358662 -55.74840808 191.38320279 C-55.74530678 186.77104526 -55.75141908 182.158918 -55.75744683 177.54676479 C-55.7714683 166.66095208 -55.76995035 155.77521789 -55.75854492 144.8894043 C-55.74706383 133.68421984 -55.76114479 122.47927475 -55.7879414 111.27412182 C-55.81013853 101.62872883 -55.81672679 91.98341075 -55.81086498 82.33799404 C-55.8075041 76.58815616 -55.80985281 70.83847171 -55.82711601 65.08865547 C-55.84264728 59.68024171 -55.83856114 54.2721811 -55.81981087 48.86378098 C-55.81614219 46.88739906 -55.81918279 44.91099061 -55.82969666 42.93463326 C-55.90022657 28.5721613 -55.30018713 14.76407753 -45.3125 3.375 C-32.47860865 -9.23719265 -14.79047407 -9.89780774 0 0 Z " fill="#C1C1BF" transform="translate(415.3125,359.625)"/>
</svg>
