<?xml version="1.0" encoding="UTF-8"?>
<svg version="1.1" xmlns="http://www.w3.org/2000/svg" width="256" height="400">
<path d="M0 0 C0.91007813 0.76828125 1.82015625 1.5365625 2.7578125 2.328125 C3.75039062 3.15828125 4.74296875 3.9884375 5.765625 4.84375 C27.91162812 23.93720549 43.54101481 52.98378998 45.7578125 82.328125 C47.63128528 119.40768686 37.9802025 151.19521268 13.0078125 178.953125 C-7.56454696 201.12107915 -37.26351601 214.74196199 -67.43847656 216.45263672 C-102.28344188 217.64778785 -134.3025243 206.54443983 -159.94140625 182.66796875 C-164.05431631 178.48523 -167.66374157 173.96902391 -171.2421875 169.328125 C-171.89832031 168.5340625 -172.55445313 167.74 -173.23046875 166.921875 C-191.79381681 143.41078086 -199.15449106 110.98971193 -195.7421875 81.55859375 C-193.45458241 64.5488635 -188.61355432 49.30472988 -180.2421875 34.328125 C-179.70980469 33.36519531 -179.17742187 32.40226562 -178.62890625 31.41015625 C-162.70108958 4.65300516 -136.24355778 -13.58282502 -106.6171875 -21.921875 C-69.55164024 -31.1116801 -30.17161601 -24.03644061 0 0 Z M-153.2421875 23.328125 C-153.2421875 23.988125 -153.2421875 24.648125 -153.2421875 25.328125 C-153.9021875 25.328125 -154.5621875 25.328125 -155.2421875 25.328125 C-156.88772643 27.31317103 -158.38711169 29.28604228 -159.8671875 31.390625 C-160.3108667 32.0204126 -160.7545459 32.6502002 -161.21166992 33.29907227 C-177.73819638 57.24639702 -184.31976049 84.59398304 -179.98828125 113.48046875 C-174.65891196 140.9643889 -158.96365178 166.15729719 -135.93359375 182.1875 C-112.49767165 197.99186317 -84.58823327 204.51804085 -56.59130859 199.78515625 C-36.10878987 195.8001973 -18.93411621 186.92372601 -3.2421875 173.328125 C-2.48550781 172.67328125 -1.72882813 172.0184375 -0.94921875 171.34375 C17.67550567 153.94580384 29.34691124 126.5105748 30.7578125 101.328125 C30.81066406 100.41417969 30.86351562 99.50023437 30.91796875 98.55859375 C31.77704735 68.86435535 20.00225492 42.89582247 0.69921875 20.9921875 C-18.0190319 1.3010548 -44.22239472 -9.34426594 -71.03515625 -10.890625 C-102.16915496 -11.62825182 -131.93688161 0.48960369 -153.2421875 23.328125 Z " fill="#C1C1BF" transform="translate(201.2421875,104.671875)"/>
<path d="M0 0 C5.45742222 0.37003739 9.73692114 3.05541565 14.375 5.7578125 C15.33067871 6.29696289 16.28635742 6.83611328 17.27099609 7.39160156 C20.31757462 9.11877228 23.34774849 10.87201462 26.375 12.6328125 C27.33567383 13.1887207 28.29634766 13.74462891 29.28613281 14.31738281 C34.19449412 17.16046824 39.09082876 20.02329288 43.98046875 22.8984375 C48.56814078 25.5891796 53.17637862 28.24035096 57.80078125 30.8671875 C58.42712463 31.22327087 59.05346802 31.57935425 59.6987915 31.94622803 C62.74613237 33.67782598 65.79564271 35.40544728 68.84814453 37.12792969 C87.24546684 47.57131178 87.24546684 47.57131178 90.375 52.6328125 C90.4375 56.0703125 90.4375 56.0703125 89.375 59.6328125 C83.99958103 64.98972745 77.19695483 68.3289291 70.625 72.0078125 C68.73466532 73.07492742 66.84553083 74.14414799 64.95637512 75.21334839 C63.66576044 75.9435067 62.37473132 76.67293292 61.08329773 77.40164185 C55.82993328 80.36715127 50.60379499 83.37813284 45.38525391 86.40454102 C42.19716074 88.25221358 39.00357473 90.09004918 35.80859375 91.92578125 C31.92993049 94.15448103 28.06224279 96.40011028 24.2061615 98.66766357 C21.39510264 100.3150999 18.5712882 101.94047553 15.75 103.5703125 C14.72495361 104.1802002 13.69990723 104.79008789 12.64379883 105.41845703 C7.00407032 108.64746333 2.91185693 110.90988057 -3.625 109.6328125 C-6.8361576 106.77982316 -7.87617404 104.48437981 -8.13293457 100.3067627 C-8.15663898 98.5568796 -8.1583238 96.80661343 -8.14257812 95.05664062 C-8.1495874 94.09833847 -8.15659668 93.14003632 -8.16381836 92.1526947 C-8.18140288 88.9895213 -8.16977363 85.82724478 -8.15625 82.6640625 C-8.15894477 80.46358061 -8.16282707 78.26309988 -8.16784668 76.06262207 C-8.17374236 71.45260268 -8.16517623 66.84289347 -8.14648438 62.23291016 C-8.12369511 56.32448894 -8.13681777 50.41679452 -8.16077423 44.50839996 C-8.17523011 39.96505256 -8.17062711 35.42187738 -8.16026306 30.87852478 C-8.15759521 28.70002659 -8.16086756 26.52151275 -8.17018127 24.34303284 C-8.18034307 21.29792881 -8.16485019 18.25400084 -8.14257812 15.20898438 C-8.15067505 14.30909286 -8.15877197 13.40920135 -8.16711426 12.48204041 C-8.11179492 8.39831255 -7.93402222 6.15628899 -5.81921387 2.57385254 C-3.625 0.6328125 -3.625 0.6328125 0 0 Z " fill="#C1C1BF" transform="translate(98.625,146.3671875)"/>
</svg>
